<?xml version="1.0" encoding="UTF-8" standalone="no"?>
<!-- Generator: Adobe Illustrator 9.0, SVG Export Plug-In  -->

<svg
   xmlns:dc="http://purl.org/dc/elements/1.1/"
   xmlns:cc="http://creativecommons.org/ns#"
   xmlns:rdf="http://www.w3.org/1999/02/22-rdf-syntax-ns#"
   xmlns:svg="http://www.w3.org/2000/svg"
   xmlns="http://www.w3.org/2000/svg"
   xmlns:xlink="http://www.w3.org/1999/xlink"
   xmlns:sodipodi="http://sodipodi.sourceforge.net/DTD/sodipodi-0.dtd"
   xmlns:inkscape="http://www.inkscape.org/namespaces/inkscape"
   height="48.000000px"
   id="svg16168"
   inkscape:output_extension="org.inkscape.output.svg.inkscape"
   inkscape:version="0.48.5 r10040"
   sodipodi:docname="icon.svg"
   sodipodi:version="0.32"
   space="preserve"
   width="48.000000px"
   version="1.1"
   inkscape:export-filename="f:\Data\Programming\Visual Studio 2013\Projects\Borderless\src\resources\icons\base32.png"
   inkscape:export-xdpi="60"
   inkscape:export-ydpi="60">
  <metadata
     id="metadata3">
    <rdf:RDF>
      <cc:Work
         rdf:about="">
        <dc:title></dc:title>
        <dc:description />
        <dc:subject>
          <rdf:Bag>
            <rdf:li>photo</rdf:li>
            <rdf:li>snapshot</rdf:li>
            <rdf:li>image</rdf:li>
            <rdf:li>picture</rdf:li>
          </rdf:Bag>
        </dc:subject>
        <dc:publisher>
          <cc:Agent
             rdf:about="http://www.openclipart.org/">
            <dc:title>Open Clip Art Library, Source: Tango Icon Library, Source: Tango Icon Library, Source: Tango Icon Library, Source: Tango Icon Library</dc:title>
          </cc:Agent>
        </dc:publisher>
        <dc:creator>
          <cc:Agent>
            <dc:title>Jakub Steiner</dc:title>
          </cc:Agent>
        </dc:creator>
        <dc:rights>
          <cc:Agent>
            <dc:title>Jakub Steiner</dc:title>
          </cc:Agent>
        </dc:rights>
        <dc:date />
        <dc:format>image/svg+xml</dc:format>
        <dc:type
           rdf:resource="http://purl.org/dc/dcmitype/StillImage" />
        <cc:license
           rdf:resource="http://en.wikipedia.org/wiki/Public_domain" />
        <dc:language>en</dc:language>
      </cc:Work>
    </rdf:RDF>
  </metadata>
  <defs
     id="defs16234">
    <inkscape:perspective
       id="perspective80"
       inkscape:persp3d-origin="24 : 16 : 1"
       inkscape:vp_x="0 : 24 : 1"
       inkscape:vp_y="0 : 1000 : 0"
       inkscape:vp_z="48 : 24 : 1"
       sodipodi:type="inkscape:persp3d" />
    <radialGradient
       cx="605.71429"
       cy="486.64789"
       fx="605.71429"
       fy="486.64789"
       gradientTransform="matrix(-2.774389,0,0,1.969706,112.7623,-872.8854)"
       gradientUnits="userSpaceOnUse"
       id="radialGradient6719"
       inkscape:collect="always"
       r="117.14286"
       xlink:href="#linearGradient5060" />
    <linearGradient
       id="linearGradient5060"
       inkscape:collect="always">
      <stop
         id="stop5062"
         offset="0"
         style="stop-color:black;stop-opacity:1;" />
      <stop
         id="stop5064"
         offset="1"
         style="stop-color:black;stop-opacity:0;" />
    </linearGradient>
    <radialGradient
       cx="605.71429"
       cy="486.64789"
       fx="605.71429"
       fy="486.64789"
       gradientTransform="matrix(2.774389,0,0,1.969706,-1891.633,-872.8854)"
       gradientUnits="userSpaceOnUse"
       id="radialGradient6717"
       inkscape:collect="always"
       r="117.14286"
       xlink:href="#linearGradient5060" />
    <linearGradient
       id="linearGradient5048">
      <stop
         id="stop5050"
         offset="0"
         style="stop-color:black;stop-opacity:0;" />
      <stop
         id="stop5056"
         offset="0.5"
         style="stop-color:black;stop-opacity:1;" />
      <stop
         id="stop5052"
         offset="1"
         style="stop-color:black;stop-opacity:0;" />
    </linearGradient>
    <linearGradient
       gradientTransform="matrix(2.774389,0,0,1.969706,-1892.179,-872.8854)"
       gradientUnits="userSpaceOnUse"
       id="linearGradient6715"
       inkscape:collect="always"
       x1="302.85715"
       x2="302.85715"
       xlink:href="#linearGradient5048"
       y1="366.64789"
       y2="609.50507" />
    <linearGradient
       id="linearGradient8171">
      <stop
         id="stop8173"
         offset="0"
         style="stop-color:#bbbdba;stop-opacity:1;" />
      <stop
         id="stop8175"
         offset="1"
         style="stop-color:#70746e;stop-opacity:1;" />
    </linearGradient>
    <linearGradient
       id="linearGradient8155"
       inkscape:collect="always">
      <stop
         id="stop8157"
         offset="0"
         style="stop-color:#ffffff;stop-opacity:1;" />
      <stop
         id="stop8159"
         offset="1"
         style="stop-color:#ffffff;stop-opacity:0;" />
    </linearGradient>
    <linearGradient
       id="linearGradient2224">
      <stop
         id="stop2226"
         offset="0"
         style="stop-color:#7c7c7c;stop-opacity:1;" />
      <stop
         id="stop2228"
         offset="1"
         style="stop-color:#b8b8b8;stop-opacity:1;" />
    </linearGradient>
    <linearGradient
       gradientUnits="userSpaceOnUse"
       id="linearGradient7648"
       style="stroke-dasharray:none;stroke-miterlimit:4.0000000;stroke-width:1.2166667"
       x1="21.9326"
       x2="21.9326"
       y1="24.6274"
       y2="7.1091">
      <stop
         id="stop7650"
         offset="0"
         style="stop-color:#8595bc;stop-opacity:1;" />
      <stop
         id="stop7652"
         offset="1"
         style="stop-color:#041a3b;stop-opacity:1;" />
    </linearGradient>
    <linearGradient
       id="linearGradient2392">
      <stop
         id="stop2394"
         offset="0.0000000"
         style="stop-color:#715b26;stop-opacity:1.0000000;" />
      <stop
         id="stop2396"
         offset="1.0000000"
         style="stop-color:#312710;stop-opacity:1.0000000;" />
    </linearGradient>
    <linearGradient
       id="linearGradient12129"
       inkscape:collect="always">
      <stop
         id="stop12131"
         offset="0"
         style="stop-color:#000000;stop-opacity:1;" />
      <stop
         id="stop12133"
         offset="1"
         style="stop-color:#000000;stop-opacity:0;" />
    </linearGradient>
    <linearGradient
       gradientUnits="userSpaceOnUse"
       id="aigrd1"
       style="stroke-dasharray:none;stroke-miterlimit:4.0000000;stroke-width:1.2166667"
       x1="12.4873"
       x2="31.0813"
       y1="3.7319"
       y2="36.0328">
      <stop
         id="stop16177"
         offset="0"
         style="stop-color:#D2D2D2;stroke-dasharray:none;stroke-miterlimit:4.0000000;stroke-width:1.2166667" />
      <stop
         id="stop16179"
         offset="1"
         style="stop-color:#EDEDED;stroke-dasharray:none;stroke-miterlimit:4.0000000;stroke-width:1.2166667" />
    </linearGradient>
    <linearGradient
       gradientUnits="userSpaceOnUse"
       id="aigrd2"
       style="stroke-dasharray:none;stroke-miterlimit:4.0000000;stroke-width:1.2166667"
       x1="21.877"
       x2="21.9168"
       y1="30.3413"
       y2="22.5769">
      <stop
         id="stop16184"
         offset="0.0000000"
         style="stop-color:#5e4f07;stop-opacity:1.0000000;" />
      <stop
         id="stop16186"
         offset="1.0000000"
         style="stop-color:#348a31;stop-opacity:1.0000000;" />
    </linearGradient>
    <linearGradient
       gradientUnits="userSpaceOnUse"
       id="aigrd3"
       style="stroke-dasharray:none;stroke-miterlimit:4.0000000;stroke-width:1.2166667"
       x1="21.9326"
       x2="21.9326"
       y1="24.6274"
       y2="7.1091">
      <stop
         id="stop16199"
         offset="0"
         style="stop-color:#D0D6E5;stroke-dasharray:none;stroke-miterlimit:4.0000000;stroke-width:1.2166667" />
      <stop
         id="stop16201"
         offset="1"
         style="stop-color:#093A80;stroke-dasharray:none;stroke-miterlimit:4.0000000;stroke-width:1.2166667" />
    </linearGradient>
    <radialGradient
       cx="24.218407"
       cy="41.636040"
       fx="24.218407"
       fy="41.636040"
       gradientTransform="matrix(1.000000,0.000000,0.000000,0.184000,0.000000,33.97501)"
       gradientUnits="userSpaceOnUse"
       id="radialGradient12135"
       inkscape:collect="always"
       r="22.097088"
       xlink:href="#linearGradient12129" />
    <linearGradient
       gradientTransform="matrix(1.098989,0.000000,0.000000,-0.797757,-1.953865,37.32400)"
       gradientUnits="userSpaceOnUse"
       id="linearGradient7671"
       inkscape:collect="always"
       x1="21.9326"
       x2="21.9326"
       xlink:href="#linearGradient7648"
       y1="24.627399"
       y2="7.1090999" />
    <linearGradient
       gradientTransform="matrix(1.098989,0.000000,0.000000,1.106697,-1.953865,-4.922453)"
       gradientUnits="userSpaceOnUse"
       id="linearGradient7673"
       inkscape:collect="always"
       x1="21.9326"
       x2="21.9326"
       xlink:href="#aigrd3"
       y1="24.6274"
       y2="7.1091" />
    <linearGradient
       gradientTransform="matrix(1.434003,0.000000,0.000000,0.990087,52.32167,2.838918)"
       gradientUnits="userSpaceOnUse"
       id="linearGradient8148"
       inkscape:collect="always"
       x1="12.4873"
       x2="31.0813"
       xlink:href="#aigrd1"
       y1="3.7319"
       y2="36.0328" />
    <radialGradient
       cx="12.700491"
       cy="10.404876"
       fx="12.700491"
       fy="10.404876"
       gradientTransform="matrix(1.710531,-5.396358e-24,2.470345e-24,1.124849,-11.56833,1.802582)"
       gradientUnits="userSpaceOnUse"
       id="radialGradient8161"
       inkscape:collect="always"
       r="19.96875"
       xlink:href="#linearGradient8155" />
    <radialGradient
       cx="12.700491"
       cy="10.404876"
       fx="12.700491"
       fy="10.404876"
       gradientTransform="matrix(1.710531,0,0,1.124849,-11.56833,1.8025821)"
       gradientUnits="userSpaceOnUse"
       id="radialGradient8161-1"
       inkscape:collect="always"
       r="19.96875"
       xlink:href="#linearGradient8155-7" />
    <linearGradient
       id="linearGradient8155-7"
       inkscape:collect="always">
      <stop
         id="stop8157-4"
         offset="0"
         style="stop-color:#ffffff;stop-opacity:1;" />
      <stop
         id="stop8159-0"
         offset="1"
         style="stop-color:#ffffff;stop-opacity:0;" />
    </linearGradient>
    <linearGradient
       gradientTransform="matrix(1.098989,0,0,-0.797757,-1.953865,37.324)"
       gradientUnits="userSpaceOnUse"
       id="linearGradient7671-9"
       inkscape:collect="always"
       x1="21.9326"
       x2="21.9326"
       xlink:href="#linearGradient7648-4"
       y1="24.627399"
       y2="7.1090999" />
    <linearGradient
       gradientUnits="userSpaceOnUse"
       id="linearGradient7648-4"
       x1="21.9326"
       x2="21.9326"
       y1="24.627399"
       y2="7.1090999">
      <stop
         id="stop7650-8"
         offset="0"
         style="stop-color:#8595bc;stop-opacity:1;" />
      <stop
         id="stop7652-8"
         offset="1"
         style="stop-color:#041a3b;stop-opacity:1;" />
    </linearGradient>
    <linearGradient
       gradientTransform="matrix(1.098989,0,0,1.106697,-1.953865,-4.922453)"
       gradientUnits="userSpaceOnUse"
       id="linearGradient7673-2"
       inkscape:collect="always"
       x1="21.9326"
       x2="21.9326"
       xlink:href="#aigrd3-4"
       y1="24.627399"
       y2="7.1090999" />
    <linearGradient
       gradientUnits="userSpaceOnUse"
       id="aigrd3-4"
       x1="21.9326"
       x2="21.9326"
       y1="24.627399"
       y2="7.1090999">
      <stop
         id="stop16199-5"
         offset="0"
         style="stop-color:#D0D6E5;stroke-dasharray:none;stroke-miterlimit:4.0000000;stroke-width:1.2166667" />
      <stop
         id="stop16201-5"
         offset="1"
         style="stop-color:#093A80;stroke-dasharray:none;stroke-miterlimit:4.0000000;stroke-width:1.2166667" />
    </linearGradient>
    <linearGradient
       gradientTransform="matrix(1.434003,0,0,0.990087,52.32167,2.8389181)"
       gradientUnits="userSpaceOnUse"
       id="linearGradient8148-1"
       inkscape:collect="always"
       x1="12.4873"
       x2="31.081301"
       xlink:href="#aigrd1-7"
       y1="3.7319"
       y2="36.032799" />
    <linearGradient
       gradientUnits="userSpaceOnUse"
       id="aigrd1-7"
       x1="12.4873"
       x2="31.081301"
       y1="3.7319"
       y2="36.032799">
      <stop
         id="stop16177-1"
         offset="0"
         style="stop-color:#D2D2D2;stroke-dasharray:none;stroke-miterlimit:4.0000000;stroke-width:1.2166667" />
      <stop
         id="stop16179-1"
         offset="1"
         style="stop-color:#EDEDED;stroke-dasharray:none;stroke-miterlimit:4.0000000;stroke-width:1.2166667" />
    </linearGradient>
    <linearGradient
       gradientTransform="matrix(2.774389,0,0,1.969706,-1892.179,-872.8854)"
       gradientUnits="userSpaceOnUse"
       id="linearGradient6715-5"
       inkscape:collect="always"
       x1="302.85715"
       x2="302.85715"
       xlink:href="#linearGradient5048-2"
       y1="366.64789"
       y2="609.50507" />
    <linearGradient
       id="linearGradient5048-2">
      <stop
         id="stop5050-7"
         offset="0"
         style="stop-color:black;stop-opacity:0;" />
      <stop
         id="stop5056-6"
         offset="0.5"
         style="stop-color:black;stop-opacity:1;" />
      <stop
         id="stop5052-1"
         offset="1"
         style="stop-color:black;stop-opacity:0;" />
    </linearGradient>
    <radialGradient
       cx="605.71429"
       cy="486.64789"
       fx="605.71429"
       fy="486.64789"
       gradientTransform="matrix(2.774389,0,0,1.969706,-1891.633,-872.8854)"
       gradientUnits="userSpaceOnUse"
       id="radialGradient6717-4"
       inkscape:collect="always"
       r="117.14286"
       xlink:href="#linearGradient5060-2" />
    <linearGradient
       id="linearGradient5060-2"
       inkscape:collect="always">
      <stop
         id="stop5062-3"
         offset="0"
         style="stop-color:black;stop-opacity:1;" />
      <stop
         id="stop5064-2"
         offset="1"
         style="stop-color:black;stop-opacity:0;" />
    </linearGradient>
    <radialGradient
       cx="605.71429"
       cy="486.64789"
       fx="605.71429"
       fy="486.64789"
       gradientTransform="matrix(-2.774389,0,0,1.969706,112.7623,-872.8854)"
       gradientUnits="userSpaceOnUse"
       id="radialGradient6719-2"
       inkscape:collect="always"
       r="117.14286"
       xlink:href="#linearGradient5060-2" />
    <radialGradient
       r="117.14286"
       fy="486.64789"
       fx="605.71429"
       cy="486.64789"
       cx="605.71429"
       gradientTransform="matrix(-2.774389,0,0,1.969706,112.7623,-872.8854)"
       gradientUnits="userSpaceOnUse"
       id="radialGradient3394"
       xlink:href="#linearGradient5060-2"
       inkscape:collect="always" />
  </defs>
  <sodipodi:namedview
     bordercolor="#666666"
     borderopacity="0.07058824"
     id="base"
     inkscape:current-layer="layer2"
     inkscape:cx="7.9364219"
     inkscape:cy="15.484896"
     inkscape:pageopacity="0.0"
     inkscape:pageshadow="2"
     inkscape:showpageshadow="false"
     inkscape:window-height="1027"
     inkscape:window-width="1920"
     inkscape:window-x="-8"
     inkscape:window-y="-8"
     inkscape:zoom="5.6568542"
     pagecolor="#ffffff"
     showgrid="false"
     showguides="true"
     inkscape:guide-bbox="true"
     inkscape:window-maximized="1" />
  <g
     inkscape:groupmode="layer"
     id="layer2"
     inkscape:label="Layer#1">
    <g
       id="g6707"
       style="display:inline"
       transform="matrix(0.02175112,0,0,0.02493263,42.41049,33.81117)">
      <rect
         height="478.35718"
         id="rect6709"
         style="opacity:0.40206185;color:#000000;fill:url(#linearGradient6715-5);fill-opacity:1;fill-rule:nonzero;stroke:none;stroke-width:1;marker:none;visibility:visible;display:inline;overflow:visible"
         width="1339.6335"
         x="-1559.2523"
         y="-150.69685" />
      <path
         inkscape:connector-curvature="0"
         d="m -219.61876,-150.68038 c 0,0 0,478.33079 0,478.33079 142.874166,0.90045 345.40022,-107.16966 345.40014,-239.196175 0,-132.026537 -159.436816,-239.134595 -345.40014,-239.134615 z"
         id="path6711"
         sodipodi:nodetypes="cccc"
         style="opacity:0.40206185;color:#000000;fill:url(#radialGradient6717-4);fill-opacity:1;fill-rule:nonzero;stroke:none;stroke-width:1;marker:none;visibility:visible;display:inline;overflow:visible" />
      <path
         inkscape:connector-curvature="0"
         d="m -1559.2523,-150.68038 c 0,0 0,478.33079 0,478.33079 -142.8742,0.90045 -345.4002,-107.16966 -345.4002,-239.196175 0,-132.026537 159.4368,-239.134595 345.4002,-239.134615 z"
         id="path6713"
         sodipodi:nodetypes="cccc"
         style="opacity:0.40206185;color:#000000;fill:url(#radialGradient3394);fill-opacity:1;fill-rule:nonzero;stroke:none;stroke-width:1;marker:none;visibility:visible;display:inline;overflow:visible" />
    </g>
    <path
       d="m 2.7177716,6.454775 40.6617724,0 c 0.623249,0 1.124999,0.5017498 1.124999,1.1249996 L 44.503906,38.375 c 0,0.62325 -0.501751,1.125 -1.125,1.125 L 2.7177716,39.499872 c -0.6232494,0 -1.1249988,-0.50175 -1.1249988,-1.125 l 0,-30.7950974 c 0,-0.6232498 0.5017494,-1.1249996 1.1249988,-1.1249996 z"
       id="rect7603"
       sodipodi:nodetypes="ccccccccc"
       style="color:#000000;fill:url(#linearGradient8148-1);fill-opacity:1;fill-rule:nonzero;stroke:#bbbfbb;stroke-width:0.99999994;stroke-linecap:butt;stroke-linejoin:miter;stroke-miterlimit:4;stroke-opacity:1;stroke-dashoffset:0;marker:none;visibility:visible;display:inline;overflow:visible"
       inkscape:connector-curvature="0" />
    <g
       id="g7654"
       transform="matrix(1.054774,0,0,1.049989,-0.8146469,4.4850121)">
      <path
         inkscape:connector-curvature="0"
         d="m 5.512695,30 34.130539,0 0,-10.372625 -34.130539,0 0,10.372625 z"
         id="path7644"
         style="fill:url(#linearGradient7671-9);fill-opacity:1;fill-rule:nonzero;stroke:none" />
      <path
         inkscape:connector-curvature="0"
         d="m 5.512695,5.237844 34.130539,0 0,14.389531 -34.130539,0 0,-14.389531 z"
         id="path16203"
         style="fill:url(#linearGradient7673-2);fill-rule:nonzero;stroke:none" />
      <g
         id="g16205"
         style="fill-rule:nonzero;stroke:#000000;stroke-width:1.15611064;stroke-miterlimit:4"
         transform="matrix(1.189217,0,0,1.189217,-3.525355,-6.535408)">
        <g
           id="g16207">
          <path
             inkscape:connector-curvature="0"
             d="m 18.4,15.4 c 0,2.2 -1.8,4.1 -4.1,4.1 -2.2,0 -4.1,-1.8 -4.1,-4.1 0,-2.2 1.8,-4.1 4.1,-4.1 2.2,0 4.1,1.8 4.1,4.1 z"
             id="path16209"
             style="opacity:0.04999994;fill:#e8f52f;stroke:none" />
          <path
             inkscape:connector-curvature="0"
             d="m 18,15.4 c 0,2 -1.6,3.7 -3.7,3.7 -2,0 -3.7,-1.6 -3.7,-3.7 0,-2 1.6,-3.7 3.7,-3.7 2,0 3.7,1.6 3.7,3.7 l 0,0 z"
             id="path16211"
             style="opacity:0.20829994;fill:#ecf751;stroke:none" />
          <path
             inkscape:connector-curvature="0"
             d="m 17.6,15.4 c 0,1.8 -1.5,3.3 -3.3,3.3 -1.8,0 -3.3,-1.5 -3.3,-3.3 0,-1.8 1.5,-3.3 3.3,-3.3 1.8,0 3.3,1.5 3.3,3.3 l 0,0 z"
             id="path16213"
             style="opacity:0.36669994;fill:#f0f972;stroke:none" />
          <path
             inkscape:connector-curvature="0"
             d="m 17.2,15.4 c 0,1.6 -1.3,2.9 -2.9,2.9 -1.6,0 -2.9,-1.3 -2.9,-2.9 0,-1.6 1.3,-2.9 2.9,-2.9 1.6,0 2.9,1.3 2.9,2.9 z"
             id="path16215"
             style="opacity:0.525;fill:#f4fa95;stroke:none" />
          <path
             inkscape:connector-curvature="0"
             d="m 16.8,15.4 c 0,1.4 -1.1,2.5 -2.5,2.5 -1.4,0 -2.5,-1.1 -2.5,-2.5 0,-1.4 1.1,-2.5 2.5,-2.5 1.4,0 2.5,1.1 2.5,2.5 l 0,0 z"
             id="path16217"
             style="opacity:0.6833;fill:#f7fcb7;stroke:none" />
          <path
             inkscape:connector-curvature="0"
             d="m 16.4,15.4 c 0,1.2 -1,2.1 -2.1,2.1 -1.1,0 -2.1,-1 -2.1,-2.1 0,-1.1 1,-2.1 2.1,-2.1 1.1,0 2.1,1 2.1,2.1 z"
             id="path16219"
             style="opacity:0.8417;fill:#fbfddb;stroke:none" />
          <path
             inkscape:connector-curvature="0"
             d="m 16,15.4 c 0,1 -0.8,1.8 -1.8,1.8 -1,0 -1.8,-0.8 -1.8,-1.8 0,-1 0.8,-1.8 1.8,-1.8 1,0 1.8,0.8 1.8,1.8 l 0,0 z"
             id="path16221"
             style="fill:#ffffff;stroke:none" />
        </g>
      </g>
      <path
         inkscape:connector-curvature="0"
         d="m 25.015859,21.649044 8.681289,0 1.664904,0.475688 -2.854121,0 c 0,0 2.854121,0.237842 4.281184,2.021669 1.427059,1.664904 -1.664905,3.686575 -1.664905,3.686575 0,0 0,0 0,0 -0.118922,-0.356766 -0.832454,-3.210889 -2.259514,-4.400106 -1.070297,-0.951374 -2.259514,-1.189218 -2.259514,-1.189218 l -5.589323,0 0,-0.475686 0,-0.118922 z"
         id="path16223"
         style="opacity:0.3;fill-rule:nonzero;stroke:none" />
      <path
         inkscape:connector-curvature="0"
         d="m 30.724106,22.362574 -4.994715,0 9.275897,5.232557 -4.281182,-5.232557 0,0 z"
         id="path16225"
         style="opacity:0.3;fill-rule:nonzero;stroke:none" />
      <path
         inkscape:connector-curvature="0"
         d="m 25.015859,21.767966 8.681289,0 1.30814,-0.832453 -2.854121,0 c 0,0 2.616276,-0.475686 2.973043,-3.448731 0.356763,-2.973043 -4.043341,-6.302851 -4.043341,-6.302851 0,0 0,0 0,0.118922 0.118921,0.71353 1.308138,5.708243 0.475688,7.610993 -0.356767,1.664901 -1.427062,2.021667 -1.427062,2.021667 l -5.470401,0 0.237844,0.832453 0.118921,0 z"
         id="path16227"
         style="fill:#515151;fill-rule:nonzero;stroke:none" />
      <path
         inkscape:connector-curvature="0"
         d="m 30.248418,20.459827 -4.994714,0 5.946086,-9.038054 -0.951372,9.038054 z"
         id="path16229"
         style="fill:#515151;fill-rule:nonzero;stroke:none" />
    </g>
    <path
       d="m 2.8042318,7.4528586 40.4297532,0 c 0.150381,0 0.271446,0.1210649 0.271446,0.271446 l -0.0015,30.5061644 c 0,0.145094 -0.11915,0.269531 -0.269531,0.269531 l -40.4301432,0 c -0.150381,0 -0.2714459,-0.121065 -0.2714459,-0.271446 l 0,-30.5042494 c 0,-0.1503811 0.1210649,-0.271446 0.2714459,-0.271446 z"
       id="rect7675"
       sodipodi:nodetypes="ccccccccc"
       style="color:#000000;fill:none;stroke:#ffffff;stroke-width:0.99999976;stroke-linecap:butt;stroke-linejoin:miter;stroke-miterlimit:4;stroke-opacity:1;stroke-dashoffset:0;marker:none;visibility:visible;display:inline;overflow:visible"
       inkscape:connector-curvature="0" />
    <rect
       height="25.0625"
       id="rect8163"
       style="opacity:0.84659095;color:#000000;fill:none;stroke:#4f4f4f;stroke-width:1;stroke-linecap:butt;stroke-linejoin:miter;stroke-miterlimit:4;stroke-opacity:1;stroke-dasharray:none;stroke-dashoffset:0;marker:none;visibility:visible;display:inline;overflow:visible"
       width="35.0625"
       x="5.5"
       y="10.5" />
    <path
       inkscape:connector-curvature="0"
       d="m 3.0625001,8.0000001 0,22.0624999 C 25.388579,30.950861 27.884634,17 43,17 l 0,-8.9999999 -39.9374999,0 z"
       id="rect8150"
       sodipodi:nodetypes="ccccc"
       style="opacity:0.30113639;color:#000000;fill:url(#radialGradient8161-1);fill-opacity:1;fill-rule:nonzero;stroke:none;stroke-width:1;marker:none;visibility:visible;display:inline;overflow:visible" />
  </g>
  <g
     inkscape:groupmode="layer"
     id="layer1"
     inkscape:label="Layer"
     style="display:none">
    <g
       id="g3974"
       transform="matrix(0.07264716,-0.0716983,0.0716983,0.07264716,8.1347836,26.166667)">
      <path
         id="path5202"
         d="m 128.4911,473.95061 -0.875,-0.28125 c -5.4594,-0.2821 -8.3336,-1.03722 -15.25,-3.28125 -14.9061,-4.83631 -17.0115,-5.03849 -21.875,-2.1875 -2.3589,1.3828 -3.9257,3.0359 -3.8437,4.03125 0,0.0416 -0.063,0.0542 -0.063,0.0937 l -0.031,1.53125 c 17.2738,1.2e-4 26.966,0.0737 41.9375,0.0937 z"
         style="fill:#000000"
         inkscape:connector-curvature="0" />
      <path
         sodipodi:nodetypes="cccccsccscccc"
         inkscape:connector-curvature="0"
         id="path5193"
         d="m 134.1474,424.51311 c 7.2919,13.23331 17.0556,37.22083 22.0624,48.78125 l 0.4376,0.71875 c 10.3398,0.0321 26.124,0.006 33.8437,0.0625 l -5,-5.53125 c -4.242,-4.67721 -6.8191,-6.34587 -17,-11.03125 -8.5008,-3.9122 -12.0684,-6.06689 -12.2813,-7.40625 -0.2862,-1.80344 0.014,-1.82734 6.5,-0.59375 6.4768,1.23173 11.2813,1.02307 11.2813,-0.5 0,-0.38702 -1.9125,-4.25144 -4.25,-8.59375 l -4.25,-7.90625 -15.5,-4.125 c -8.525,-2.27342 -15.6562,-4.02091 -15.8437,-3.875 z"
         style="fill:#000000" />
      <path
         id="path5189"
         d="m 45.9286,473.85686 c 0.069,-5e-5 0.1499,5e-5 0.2188,0 l 2.4062,-0.90625 c 0.01,-0.003 -0.071,0.003 -0.062,0 1.1,-0.45812 11,-4.20822 22,-8.34375 11,-4.13554 20.8029,-7.83233 21.7813,-8.21875 1.4547,-0.57461 0.672,-1.50668 -4.2813,-5.1875 l -6.0625,-4.5 -5.9375,2.5625 c -5.7596,2.49787 -5.9862,2.52349 -6.9687,0.6875 -1.4125,-2.63938 -1.44,-2.61552 2.4687,-5.03125 1.925,-1.18972 3.4828,-2.44486 3.4687,-2.8125 -0.014,-0.36764 -2.2465,-2.18484 -4.9687,-4.03125 l -4.9375,-3.375 -9.2812,5.4375 -9.2813,5.40625 -0.2813,14.1875 -0.2812,14.125 z"
         style="fill:#000000"
         inkscape:connector-curvature="0" />
      <path
         id="path4635"
         d="m 123.6706,464.9237 c -7.6062,-2.10363 -13.9433,-3.97655 -14.0826,-4.16204 -0.5204,-0.69324 -8.588,-16.00319 -8.588,-16.29747 0,-1.50309 8.37,-1.02083 16.75,0.9651 1.7219,0.40805 2.25,0.0939 2.25,-1.33851 0,-1.41983 -3.0419,-3.28667 -12.599,-7.73223 -10.3012,-4.79165 -13.4016,-6.75324 -17,-10.75547 C 87.9805,422.91084 86,420.34952 86,419.91127 c 0,-0.43826 2.0992,-2.02704 4.6649,-3.53064 l 4.6649,-2.7338 9.5851,2.74995 c 16.6436,4.77503 14.3025,2.21591 25.8651,28.27467 5.621,12.66811 10.22,23.30743 10.22,23.64294 0,1.12533 -3.4206,0.45606 -17.3294,-3.39069 z"
         style="fill:#000000"
         inkscape:connector-curvature="0" />
      <path
         id="path4623"
         d="m 204.7064,455.26592 -4.7936,-3.59774 3.7936,-2.52605 c 2.0865,-1.38933 3.9783,-2.67892 4.2041,-2.86576 0.2258,-0.18684 -0.3705,-1.20275 -1.3251,-2.25759 -1.7068,-1.88596 -1.829,-1.87659 -7.346,0.56329 l -5.6104,2.48118 -5.5645,-3.93466 c -3.0605,-2.16405 -5.5645,-4.27573 -5.5645,-4.6926 0,-0.59092 53.6847,-21.21372 62.5363,-24.02312 1.877,-0.59573 1.9637,-0.0943 1.9637,11.35646 l 0,11.9797 -18.0371,10.58768 c -9.9204,5.82323 -18.3579,10.57403 -18.75,10.55732 -0.3921,-0.0167 -2.87,-1.64935 -5.5065,-3.62811 z"
         style="fill:#000000"
         inkscape:connector-curvature="0" />
      <path
         id="path4617"
         d="M 167.1575,424.55394 154.815,420.4244 144.4212,396.99402 c -5.7166,-12.8867 -10.2164,-23.60772 -9.9997,-23.82447 0.3086,-0.3086 20.9645,4.79611 29.737,7.34892 2.0653,0.60102 10.2033,16.01148 9.2608,17.53658 -0.6681,1.081 -4.5045,0.875 -13.6693,-0.73398 -3.1138,-0.54667 -3.75,-0.37163 -3.75,1.03175 0,1.1793 4.0045,3.62704 13.25,8.09898 11.0319,5.33603 13.888,7.1908 17.0609,11.07981 2.096,2.56901 3.446,4.99852 3,5.39891 -0.446,0.40039 -2.8359,1.85861 -5.3109,3.24047 l -4.5,2.51249 -12.3425,-4.12954 z"
         style="fill:#000000"
         inkscape:connector-curvature="0" />
      <path
         id="path4615"
         d="m 29,416.01209 0,-11.91232 18.0809,-10.61344 18.081,-10.61343 4.919,3.61092 c 2.7055,1.986 4.9191,3.92026 4.9191,4.29834 0,0.37809 -1.575,1.53563 -3.5,2.57231 -3.7361,2.01204 -4.3529,3.61722 -2.1062,5.48182 1.0803,0.8965 2.6391,0.60608 6.9281,-1.2907 l 5.5342,-2.44749 6.24,4.39396 6.24,4.39397 -3.4181,1.40255 C 84.5178,407.91484 30.4019,427.9244 29.6995,427.9244 29.3148,427.9244 29,422.56386 29,416.01209 z"
         style="fill:#000000"
         inkscape:connector-curvature="0" />
      <path
         id="path4607"
         d="m 125.1678,413.60015 -15.3322,-4.17575 -4.4015,-8 c -2.4209,-4.4 -4.4089,-8.40245 -4.4179,-8.89434 -0.017,-0.92678 12.7377,-0.18348 16.7338,0.9752 1.7636,0.51136 2.2489,0.24885 2.245,-1.21423 0,-1.4191 -3.0853,-3.27431 -12.8531,-7.73805 -10.8093,-4.93967 -13.5063,-6.63539 -16.9951,-10.68559 -2.2807,-2.64779 -4.1463,-5.18066 -4.1458,-5.62858 6e-4,-0.44793 2.2002,-2.04957 4.8882,-3.55922 l 4.8871,-2.7448 12.303,3.77632 12.303,3.77633 10.7039,24.21848 c 5.8872,13.32016 10.4137,24.18507 10.0589,24.14423 -0.3548,-0.0408 -7.5446,-1.95334 -15.9773,-4.25 z"
         style="fill:#000000"
         inkscape:connector-curvature="0" />
      <path
         id="path4599"
         d="m 204.7822,403.66835 c -2.5947,-1.78417 -4.7288,-3.46895 -4.7423,-3.74395 -0.014,-0.275 1.7786,-1.52974 3.9825,-2.78831 3.4667,-1.97977 3.8654,-2.55281 2.9571,-4.25 -1.3034,-2.43537 -2.3567,-2.42727 -7.8387,0.0603 -2.3976,1.08792 -4.8317,1.97804 -5.4091,1.97804 -0.5775,0 -3.5142,-1.86054 -6.5261,-4.13454 -3.9714,-2.99842 -5.0955,-4.34093 -4.0909,-4.88565 2.4212,-1.3128 44.739,-16.97981 45.8637,-16.97981 0.7319,0 0.9887,4.4068 0.7998,13.72281 l -0.2782,13.72281 -9,5.26433 c -4.95,2.89539 -9.45,5.2674 -10,5.27115 -0.55,0.004 -3.123,-1.45297 -5.7178,-3.23715 z"
         style="fill:#000000"
         inkscape:connector-curvature="0" />
      <path
         id="path4585"
         d="m 171.9266,370.1769 -16.5734,-0.29926 -10.7145,-24.10541 c -5.8929,-13.25797 -10.574,-24.24585 -10.4024,-24.4175 0.1717,-0.17165 7.3031,1.5135 15.8477,3.74479 l 15.5355,4.05687 4.1903,7.75797 c 2.3046,4.26689 4.1902,8.32931 4.1902,9.02761 0,0.96487 -1.6202,1.11386 -6.75,0.62067 -3.7125,-0.35692 -7.7625,-0.92402 -9,-1.26023 -1.7644,-0.47934 -2.25,-0.19684 -2.25,1.30891 0,1.48054 2.8758,3.26225 12.5604,7.78181 9.9627,4.64934 13.3752,6.78728 16.5,10.33725 2.1668,2.46158 3.9396,4.86224 3.9396,5.33481 0,0.47257 -0.1125,0.75835 -0.25,0.63509 -0.1375,-0.12327 -7.708,-0.35879 -16.8234,-0.52338 z"
         style="fill:#000000"
         inkscape:connector-curvature="0" />
      <path
         id="path4583"
         d="m 46,356.16396 0,-13.76045 8.9641,-5.23955 c 4.9302,-2.88176 9.4691,-5.23956 10.0865,-5.23956 1.2832,0 9.9558,6.03903 9.937,6.91952 -0.01,0.31926 -1.5818,1.59712 -3.5,2.83967 -3.8091,2.46743 -4.1966,3.40746 -2.1167,5.1337 1.0451,0.86734 2.715,0.62344 7.0256,-1.02614 l 5.6547,-2.16391 5.5027,3.78984 c 3.0265,2.08441 5.6818,4.07968 5.9007,4.43393 0.3448,0.55788 -44.9988,18.07339 -46.7879,18.07339 C 46.3,369.9244 46,363.7322 46,356.16396 z"
         style="fill:#000000"
         inkscape:connector-curvature="0" />
      <path
         id="path4581"
         d="m 124.5209,361.88331 c -8.8027,-2.43389 -14.4801,-4.53056 -15.3318,-5.66204 -0.7439,-0.98828 -2.892,-4.8255 -4.7735,-8.52715 l -3.4209,-6.73029 2.5683,-0.64459 c 1.4125,-0.35453 5.0888,-0.1384 8.1694,0.48028 7.3087,1.46781 8.2676,1.42249 8.2676,-0.39075 0,-0.95873 -4.8685,-3.84658 -13.25,-7.85942 -11.0485,-5.28978 -13.8822,-7.11587 -17.0551,-10.99073 -2.0928,-2.55582 -3.551,-5.05798 -3.2405,-5.56036 0.3104,-0.50238 2.5291,-2.01149 4.9304,-3.35358 l 4.3659,-2.44016 12.165,3.73361 c 6.6907,2.05348 12.3103,3.90295 12.4879,4.10994 0.6355,0.74055 20.5964,46.43299 20.5964,47.14715 0,1.13024 -1.513,0.82617 -16.4791,-3.31191 z"
         style="fill:#000000"
         inkscape:connector-curvature="0" />
      <path
         id="path4569"
         d="m 205.147,352.14977 c -5.3099,-3.7009 -5.3117,-3.70406 -3.0343,-5.21426 5.4126,-3.58929 5.9402,-4.35918 4.3897,-6.40637 -1.399,-1.84729 -1.5822,-1.83154 -7.2405,0.62239 l -5.8053,2.51766 -5.4783,-3.93229 c -3.0131,-2.16276 -5.5916,-4.24528 -5.7301,-4.62783 -0.2295,-0.63379 62.2617,-24.27386 64.0018,-24.21153 0.4125,0.0148 0.75,5.36407 0.75,11.88732 l 0,11.86046 -16.25,9.32222 c -8.9375,5.12722 -17.159,9.89893 -18.2699,10.6038 -1.774,1.12552 -2.6669,0.83065 -7.3331,-2.42157 z"
         style="fill:#000000"
         inkscape:connector-curvature="0" />
      <path
         id="path4557"
         d="m 29.018,312.78139 0.018,-12.35699 18.0424,-10.36537 18.0423,-10.36536 4.9378,3.36536 c 2.7157,1.85096 4.9386,3.66617 4.9397,4.03381 0,0.36764 -1.5731,1.64184 -3.4981,2.83156 -3.9087,2.41573 -3.8964,2.39078 -2.4839,5.03016 0.9829,1.83641 1.2104,1.81442 6.9412,-0.67092 l 5.9249,-2.56959 6.1107,4.28642 c 4.1475,2.90927 5.6925,4.51876 4.8089,5.00958 -0.716,0.39774 -14.5768,5.67476 -30.8018,11.72671 -16.225,6.05195 -30.2875,11.31811 -31.25,11.70258 -1.6105,0.64332 -1.7486,-0.28588 -1.732,-11.65795 z"
         style="fill:#000000"
         inkscape:connector-curvature="0" />
      <path
         id="path4555"
         d="m 173.5,323.39826 c -2.2,-0.75254 -7.2228,-2.32378 -11.1618,-3.49165 l -7.1617,-2.12341 -10.6795,-24.0048 c -5.8738,-13.20264 -10.526,-24.13534 -10.3383,-24.2949 0.1877,-0.15956 7.3156,1.58706 15.8396,3.88136 l 15.4984,4.17146 4.1852,7.44404 c 2.3019,4.09422 4.2152,7.95408 4.2517,8.57746 0.1072,1.83032 -4.363,2.16034 -11.386,0.84059 -6.0083,-1.12909 -6.5476,-1.08837 -6.5476,0.4944 0,1.22563 3.703,3.48891 12.7945,7.82011 10.8914,5.18865 13.4361,6.85628 17.1085,11.21151 2.3727,2.81392 4.1527,5.24921 3.9555,5.41176 -1.9147,1.57822 -9.8474,5.5707 -10.9464,5.50926 -0.7766,-0.0434 -3.2121,-0.69466 -5.4121,-1.44719 z"
         style="fill:#000000"
         inkscape:connector-curvature="0" />
      <path
         id="path4549"
         d="m 123.6567,310.01243 -13.8433,-3.69172 -4.4033,-8.44816 c -2.4217,-4.64648 -4.4048,-8.5044 -4.4067,-8.57315 0,-0.0688 1.2605,-0.37777 2.8052,-0.68671 2.4741,-0.49483 5.3153,-0.12008 13.9414,1.83885 1.7118,0.38874 2.25,0.0648 2.25,-1.35434 0,-1.40948 -3.1285,-3.33788 -12.8026,-7.89133 -10.4635,-4.92505 -13.5743,-6.90273 -17.0264,-10.82453 -2.3231,-2.63918 -4.0871,-5.20861 -3.92,-5.70983 0.167,-0.50123 2.3844,-2.09191 4.9274,-3.53485 l 4.6236,-2.62352 12.349,3.81085 12.349,3.81084 9.7149,22.14479 c 12.1105,27.60557 11.4173,25.66958 9.1421,25.53465 -1.0214,-0.0606 -8.0865,-1.7714 -15.7003,-3.80184 z"
         style="fill:#000000"
         inkscape:connector-curvature="0" />
      <path
         id="path4537"
         d="m 204.7064,300.26592 -4.7936,-3.59774 3.7936,-2.52605 c 2.0865,-1.38933 3.9783,-2.67892 4.2041,-2.86576 0.2258,-0.18684 -0.3705,-1.20275 -1.3251,-2.25759 -1.7068,-1.88596 -1.829,-1.87659 -7.346,0.56329 l -5.6104,2.48118 -5.5645,-3.93466 c -3.0605,-2.16405 -5.5645,-4.28944 -5.5645,-4.72308 0,-0.96757 46.2936,-18.35419 46.997,-17.6508 0.2766,0.27666 0.503,6.45543 0.503,13.7306 l 0,13.22758 -9.6252,5.60576 c -5.2938,3.08316 -9.9063,5.59209 -10.25,5.57538 -0.3436,-0.0167 -2.7819,-1.64935 -5.4184,-3.62811 z"
         style="fill:#000000"
         inkscape:connector-curvature="0" />
      <path
         id="path4525"
         d="m 46,253.12626 0,-14.01213 9.5636,-5.59912 9.5637,-5.59913 4.3853,3.0172 c 2.412,1.65945 4.6504,3.44604 4.9743,3.97018 0.324,0.52415 -0.9975,1.98082 -2.9366,3.23707 -3.7897,2.45524 -4.3412,3.88276 -2.1898,5.66829 1.0367,0.86042 2.7047,0.53466 7.0089,-1.3689 l 5.6485,-2.49801 6.0073,4.4223 c 3.304,2.43227 5.6624,4.63057 5.241,4.88513 -0.4214,0.25455 -10.4412,4.06979 -22.2662,8.47832 -11.825,4.40853 -22.2875,8.32947 -23.25,8.71321 C 46.1334,267.08519 46,266.07026 46,253.12626 z"
         style="fill:#000000"
         inkscape:connector-curvature="0" />
      <path
         id="path4523"
         d="m 156.1496,266.03802 c -1.4739,-0.93401 -22.4016,-47.195 -21.6777,-47.91888 0.3464,-0.34642 19.9303,4.53212 29.6866,7.39525 0.9122,0.26769 3.5508,4.12384 5.8635,8.5692 5.4648,10.50394 5.0179,10.86176 -10.272,8.22566 -3.0851,-0.53189 -3.75,-0.35264 -3.75,1.01093 0,1.14048 3.9291,3.51452 12.5966,7.61115 9.5179,4.49849 13.5407,6.99726 16.459,10.22337 2.1243,2.34834 3.8808,4.6072 3.9034,5.0197 0.057,1.04501 -31.1498,0.91528 -32.8094,-0.13638 z"
         style="fill:#000000"
         inkscape:connector-curvature="0" />
      <path
         id="path4521"
         d="m 125.1964,258.60015 -15.3036,-4.17575 -4.4167,-8 c -2.4292,-4.4 -4.43,-8.40245 -4.4464,-8.89434 -0.031,-0.92713 12.7254,-0.18313 16.7203,0.9752 1.7687,0.51284 2.25,0.2489 2.25,-1.23376 0,-1.44264 -2.9795,-3.25532 -12.6709,-7.70869 -10.0861,-4.63473 -13.546,-6.77274 -16.9603,-10.48047 -2.3592,-2.56187 -4.3068,-5.10794 -4.3281,-5.65794 -0.021,-0.55 2.1924,-2.25309 4.9193,-3.78465 l 4.958,-2.78465 12.1998,3.76933 12.1998,3.76933 2.4529,5.51532 c 14.2247,31.98396 18.9433,43.00385 18.3872,42.94107 -0.3617,-0.0408 -7.5443,-1.95334 -15.9613,-4.25 z"
         style="fill:#000000"
         inkscape:connector-curvature="0" />
      <path
         id="path4515"
         d="m 204.5009,248.26949 -4.7867,-3.65491 4.1429,-2.44663 c 4.5543,-2.68962 4.8918,-3.37716 2.5934,-5.28461 -1.2811,-1.06326 -2.4534,-0.91128 -6.7693,0.87755 -2.8709,1.18993 -5.5679,2.16351 -5.9932,2.16351 -0.4254,0 -3.2911,-1.85995 -6.3683,-4.13322 -4.3448,-3.20968 -5.2609,-4.32016 -4.1,-4.96985 0.8222,-0.46015 14.7217,-5.7596 30.8876,-11.77657 16.166,-6.01697 30.1802,-11.25368 31.1427,-11.63714 1.6109,-0.64177 1.7474,0.28516 1.717,11.65979 l -0.033,12.35699 -17.8023,10.25 c -9.7912,5.6375 -18.2617,10.25 -18.8232,10.25 -0.5616,0 -3.175,-1.64471 -5.8077,-3.65491 z"
         style="fill:#000000"
         inkscape:connector-curvature="0" />
      <path
         id="path4493"
         d="m 29,209.42709 0,-12.22875 18.1783,-10.52326 18.1783,-10.52326 4.8217,3.59975 c 2.6519,1.97986 4.8161,3.84119 4.8093,4.13628 -0.01,0.2951 -1.5818,1.55319 -3.5,2.79574 -3.8381,2.48623 -4.2002,3.40453 -2.0471,5.19146 1.1376,0.94408 2.4263,0.7595 6.1272,-0.87755 2.5776,-1.14021 5.3236,-2.0731 6.1023,-2.0731 1.7505,0 12.9025,8.30733 11.6993,8.71502 -0.4781,0.16201 -15.1568,5.63198 -32.6193,12.1555 L 29,221.65585 29,209.42709 z"
         style="fill:#000000"
         inkscape:connector-curvature="0" />
      <path
         id="path4491"
         d="m 167.2761,218.07625 c -6.1731,-2.00852 -11.6308,-4.10185 -12.1282,-4.65185 -1.1559,-1.27805 -21.276,-46.70525 -20.8673,-47.11397 0.1683,-0.16826 7.2862,1.52422 15.8176,3.76106 l 15.5117,4.06699 4.195,7.76692 c 2.3073,4.27181 4.1951,8.33827 4.1951,9.03657 0,0.96487 -1.6202,1.11386 -6.75,0.62067 -3.7125,-0.35692 -7.7625,-0.92402 -9,-1.26023 -1.7577,-0.47752 -2.25,-0.19601 -2.25,1.28652 0,1.45002 2.7724,3.17046 11.75,7.29164 12.3047,5.64848 14.5874,7.20502 19.3603,13.2014 l 2.9113,3.65756 -5.0258,3.09244 c -2.7642,1.70084 -5.3566,3.04826 -5.7608,2.99428 -0.4043,-0.054 -5.7858,-1.74149 -11.9589,-3.75 z"
         style="fill:#000000"
         inkscape:connector-curvature="0" />
      <path
         id="path4485"
         d="m 124.5048,206.8359 c -8.7185,-2.40574 -14.4992,-4.531 -15.3318,-5.63665 -0.735,-0.97617 -2.8759,-4.80348 -4.7574,-8.50513 l -3.4209,-6.73029 2.5683,-0.64459 c 1.4125,-0.35453 5.0888,-0.1384 8.1694,0.48028 7.2875,1.46354 8.2676,1.42117 8.2676,-0.35733 0,-0.91428 -5.0769,-3.92493 -13.25,-7.85731 -11.0245,-5.30431 -13.8891,-7.15596 -17.0551,-11.02415 -2.0928,-2.55697 -3.551,-5.06009 -3.2405,-5.56247 0.3104,-0.50238 2.5225,-2.0078 4.9157,-3.34538 l 4.3513,-2.43195 12.3763,3.81285 c 6.807,2.09707 12.5055,4.16785 12.6632,4.60174 0.1578,0.43388 4.9385,11.25138 10.6237,24.03888 7.73,17.38647 9.9307,23.22141 8.7261,23.13665 -0.8859,-0.0623 -7.9086,-1.85115 -15.6059,-3.97515 z"
         style="fill:#000000"
         inkscape:connector-curvature="0" />
      <path
         id="path4483"
         d="m 205.1281,197.13658 c -5.2916,-3.68812 -5.2931,-3.6907 -3.0154,-5.20107 5.4126,-3.58929 5.9402,-4.35918 4.3897,-6.40637 -1.3989,-1.84712 -1.5834,-1.83103 -7.2657,0.63329 l -5.8303,2.52855 -5.6707,-4.13329 c -3.1189,-2.27331 -5.6853,-4.36178 -5.7032,-4.64105 -0.03,-0.47562 45.9449,-17.99224 47.2237,-17.99224 0.3244,0 0.5119,6.17663 0.4168,13.72584 l -0.173,13.72584 -6.5,3.88897 c -3.575,2.13893 -7.8675,4.71528 -9.5389,5.72522 l -3.0388,1.83626 -5.2942,-3.68995 z"
         style="fill:#000000"
         inkscape:connector-curvature="0" />
      <path
         id="path4461"
         d="m 46.0218,149.56228 0.022,-14.13788 9.5615,-5.34962 9.5615,-5.34962 4.9147,3.34962 c 2.7031,1.84229 4.9156,3.65042 4.9167,4.01806 0,0.36764 -1.5731,1.64184 -3.4981,2.83156 -3.9087,2.41573 -3.8964,2.39078 -2.4839,5.03016 0.9829,1.83641 1.2104,1.81442 6.9412,-0.67092 l 5.9249,-2.56959 6.0717,4.25904 c 3.3394,2.34248 5.9254,4.40535 5.7466,4.58416 -0.1788,0.1788 -10.9846,4.33411 -24.0128,9.23401 l -23.6877,8.90891 0.022,-14.13789 z"
         style="fill:#000000"
         inkscape:connector-curvature="0" />
      <path
         id="path4459"
         d="m 156.8769,163.25951 c -1.0077,-0.26876 -5.6728,-9.55646 -12.3042,-24.49653 -5.8745,-13.235 -10.5441,-24.17987 -10.3768,-24.32194 0.1672,-0.14207 7.2654,1.59607 15.7737,3.86253 l 15.4697,4.12083 4.2139,7.5 c 2.3177,4.125 4.2439,8.01004 4.2804,8.63342 0.1394,2.38035 -4.7136,2.33067 -15.6836,-0.16056 -1.7133,-0.38908 -2.25,-0.065 -2.25,1.35885 0,1.41378 3.122,3.34614 12.8009,7.92307 10.5417,4.98496 13.4537,6.84996 16.5,10.56754 2.0345,2.48285 3.6991,4.77604 3.6991,5.09598 0,0.65952 -29.626,0.5828 -32.1231,-0.0832 z"
         style="fill:#000000"
         inkscape:connector-curvature="0" />
      <path
         id="path4457"
         d="m 123.6706,154.9237 c -7.6062,-2.10363 -13.9515,-3.97655 -14.1008,-4.16204 -1.1113,-1.38133 -8.4352,-16.30524 -8.1444,-16.59601 0.7189,-0.71892 7.1516,-0.6321 12.8246,0.17308 9.761,1.3854 7.3878,-1.33595 -7.12,-8.16458 -10.6603,-5.01767 -13.5361,-6.85471 -16.75,-10.69949 -2.134,-2.55296 -3.88,-5.10112 -3.88,-5.66258 0,-0.56146 2.0994,-2.21206 4.6653,-3.66801 l 4.6654,-2.64718 12.2432,3.70562 c 6.7337,2.03809 12.3163,3.82177 12.4057,3.96375 0.651,1.03421 20.5204,46.70633 20.5204,47.16866 0,1.10352 -3.4874,0.41705 -17.3294,-3.41122 z"
         style="fill:#000000"
         inkscape:connector-curvature="0" />
      <path
         id="path4451"
         d="m 205.5,145.79316 c -5.9213,-4.43413 -5.9804,-4.5631 -2.8649,-6.24707 5.8764,-3.17625 5.9659,-3.30017 3.9726,-5.50268 -1.8103,-2.00037 -1.8204,-1.99974 -7.3904,0.46362 l -5.5777,2.46671 -5.5698,-3.92638 c -3.0634,-2.15951 -5.5698,-4.2627 -5.5698,-4.67377 0,-0.67037 61.9346,-24.41306 63.75,-24.43863 0.4125,-0.006 0.75,5.3535 0.75,11.90958 l 0,11.92013 -17.2537,10.01674 c -9.4895,5.5092 -17.927,10.23957 -18.75,10.51193 -0.823,0.27236 -3.2963,-0.85272 -5.4963,-2.50018 z"
         style="fill:#000000"
         inkscape:connector-curvature="0" />
      <path
         id="path4439"
         d="M 29.2192,105.75353 29.5,93.582645 l 17.8529,-10.39381 17.8529,-10.3938 3.8746,2.68506 c 6.3376,4.39197 6.5438,5.02033 2.5063,7.63636 -3.8246,2.47812 -4.3819,3.90309 -2.2262,5.69216 1.0367,0.86042 2.7047,0.53466 7.0089,-1.3689 l 5.6485,-2.49801 6.0858,4.48008 6.0857,4.48009 -2.8447,1.10431 c -8.1733,3.17284 -61.5356,22.918215 -61.937,22.918215 -0.2581,0 -0.3429,-5.47689 -0.1885,-12.17087 z"
         style="fill:#000000"
         inkscape:connector-curvature="0" />
      <path
         id="path4437"
         d="m 166.1507,114.39272 c -5.692,-1.83342 -10.5371,-3.52136 -10.7667,-3.75099 -1.0713,-1.07132 -21.3138,-47.120865 -20.8967,-47.537925 0.4275,-0.42754 12.2274,2.48007 26.2914,6.47846 5.2152,1.48267 5.3275,1.59781 9.3318,9.56188 5.297,10.5353 5.2634,10.5616 -10.3605,8.11247 -3.0334,-0.4755 -3.75,-0.27793 -3.75,1.03382 0,1.09408 4.1409,3.58765 12.7284,7.6648 10.1448,4.816485 13.5865,6.999825 16.9552,10.756165 2.3247,2.59215 4.2469,5.01203 4.2716,5.37751 0.079,1.17498 -9.1335,5.83892 -11.3312,5.73639 -1.1682,-0.0545 -6.7812,-1.59916 -12.4733,-3.43258 z"
         style="fill:#000000"
         inkscape:connector-curvature="0" />
      <path
         id="path4429"
         d="m 125.2176,103.5778 -15.2824,-4.153405 -4.5342,-8.35006 c -2.4938,-4.59253 -4.3267,-8.55758 -4.0731,-8.81122 0.8443,-0.8443 8.1124,-0.52979 12.6721,0.54836 5.9415,1.40487 6,1.39821 6,-0.68322 0,-1.32659 -3.3331,-3.3344 -12.75,-7.68042 -10.0416,-4.63432 -13.6444,-6.855 -16.9603,-10.45387 -2.3157,-2.51326 -4.2277,-5.01957 -4.249,-5.56957 -0.021,-0.55 2.1605,-2.23516 4.8485,-3.74481 l 4.8871,-2.7448 12.292,3.77295 12.292,3.77294 6.8784,15.47186 c 3.7831,8.50952 8.6268,19.40936 10.7638,24.22186 2.137,4.812505 3.5731,8.706535 3.1915,8.653405 -0.3817,-0.0531 -7.5711,-1.96564 -15.9764,-4.25 z"
         style="fill:#000000"
         inkscape:connector-curvature="0" />
      <path
         id="path4419"
         d="m 204.5883,93.272535 -4.9117,-3.60228 3.9117,-2.36082 c 4.2161,-2.5445 4.8397,-4.08173 2.3045,-5.68085 -1.1721,-0.73934 -3.099,-0.39546 -7.1178,1.27022 l -5.5106,2.28402 -5.7099,-4.21817 c -3.1405,-2.31999 -5.5291,-4.39903 -5.308,-4.62009 0.6483,-0.64826 45.6677,-17.42017 46.7595,-17.42017 0.6095,0 0.994,5.21004 0.994,13.46729 l 0,13.46728 -9.4009,5.53272 c -5.1705,3.04299 -9.783,5.52155 -10.25,5.50792 -0.467,-0.0136 -3.0594,-1.64582 -5.7608,-3.62707 z"
         style="fill:#000000"
         inkscape:connector-curvature="0" />
      <path
         id="path4403"
         d="m 46.0239,46.174395 0.024,-13.75 8.9034,-5.25 c 4.8968,-2.8875 9.3729,-5.25 9.9469,-5.25 1.2165,0 10.1079,6.11801 10.0896,6.9425 -0.01,0.30663 -1.5818,1.57414 -3.5,2.81669 -3.8533,2.49609 -4.2021,3.4029 -2.0092,5.22291 1.1889,0.98663 2.5491,0.78326 6.9436,-1.03818 l 5.4652,-2.26518 5.6325,3.87926 c 3.0979,2.1336 5.7901,4.13429 5.9828,4.44599 0.3129,0.50638 -45.2049,17.99601 -46.8358,17.99601 -0.3667,0 -0.656,-6.1875 -0.6428,-13.75 z"
         style="fill:#000000"
         inkscape:connector-curvature="0" />
      <path
         id="path4401"
         d="m 155.2624,58.674395 c -1.3857,-1.76309 -21.4415,-46.90427 -21.0244,-47.32137 0.1887,-0.18864 7.3213,1.51165 15.8504,3.77842 l 15.5074,4.12139 4.2021,7.75385 c 2.3111,4.26461 4.2021,8.30598 4.2021,8.98081 0,0.90915 -1.7485,1.06689 -6.75,0.60897 -3.7125,-0.3399 -7.7625,-0.90765 -9,-1.26166 -1.7803,-0.50929 -2.25,-0.23943 -2.25,1.29256 0,1.49631 2.6566,3.16468 11.6921,7.34286 12.1625,5.62413 15.8609,8.11335 19.364,13.033 l 2.0801,2.92117 -16.4457,0 c -11.9658,0 -16.7132,-0.3405 -17.4281,-1.25 z"
         style="fill:#000000"
         inkscape:connector-curvature="0" />
      <path
         id="path4399"
         d="m 124.8926,51.983575 c -7.4841,-2.07069 -14.1337,-4.09014 -14.7769,-4.48766 -0.6432,-0.39751 -2.958,-4.27999 -5.144,-8.62773 l -3.9745,-7.90498 2.5124,-0.63057 c 1.3818,-0.34681 5.4526,-0.0758 9.0463,0.60231 3.5937,0.67808 6.7944,0.97251 7.1126,0.65429 1.5629,-1.56287 -1.4374,-3.62427 -12.6112,-8.66484 -10.4897,-4.73193 -12.8232,-6.22724 -16.7101,-10.70758 -2.4847,-2.86417 -4.2238,-5.6831 -3.8646,-6.26429 0.8992,-1.45485 8.0681,-5.02812999 10.0878,-5.02812999 0.9075,0 6.6629,1.56837999 12.7898,3.48529999 l 11.1398,3.4853 10.25,23.30317 c 5.6375,12.81674 10.25,23.62336 10.25,24.0147 0,1.10817 -1.5636,0.7947 -16.1074,-3.22929 z"
         style="fill:#000000"
         inkscape:connector-curvature="0" />
      <path
         id="path4391"
         d="m 205.0747,42.193335 -5.2979,-3.70876 2.3073,-1.53009 c 1.269,-0.84155 3.1549,-2.21559 4.1908,-3.05343 1.8237,-1.47494 1.8254,-1.57536 0.054,-3.16075 -1.7008,-1.52245 -2.2153,-1.47996 -7.3292,0.6053 l -5.5,2.24271 -5.75,-4.02882 c -3.1625,-2.21585 -5.748,-4.27773 -5.7456,-4.58196 0,-0.56528 62.8846,-24.13594999 64.2456,-24.08255999 0.4125,0.0162 0.75,5.36357999 0.75,11.88310999 l 0,11.8537 -14.75,8.52462 c -8.1125,4.68855 -16.3537,9.47437 -18.3137,10.63516 l -3.5637,2.11054 -5.2979,-3.70877 z"
         style="fill:#000000"
         inkscape:connector-curvature="0" />
      <path
         id="path4381"
         d="m 29.018,2.674395 0.018,-12.25 18.0424,-10.36537 18.0423,-10.36536 4.9378,3.36536 c 2.7157,1.85096 4.9386,3.66617 4.9397,4.03381 0,0.36764 -1.5731,1.64184 -3.4981,2.83156 -3.9087,2.41573 -3.8964,2.39078 -2.4839,5.03016 0.9829,1.83641 1.2104,1.81442 6.9412,-0.67092 l 5.9249,-2.56959 6.1107,4.28642 c 4.1563,2.91547 5.6944,4.5191 4.8089,5.01393 -1.3175,0.73627 -62.8206,23.91 -63.4571,23.91 -0.1896,0 -0.3366,-5.5125 -0.3267,-12.25 z"
         style="fill:#000000"
         inkscape:connector-curvature="0" />
      <path
         id="path4379"
         d="m 175,13.900925 c -1.375,-0.47607 -6.4007,-2.05712 -11.1683,-3.51344 l -8.6683,-2.64786 -10.6465,-24.00953 c -5.8555,-13.20524 -10.5048,-24.12814 -10.3317,-24.27311 0.1732,-0.14498 7.2891,1.61357 15.8131,3.90787 l 15.4984,4.17146 4.1852,7.44404 c 2.3019,4.09422 4.2152,7.95408 4.2517,8.57746 0.1072,1.83032 -4.363,2.16034 -11.386,0.84059 -6.0083,-1.12909 -6.5476,-1.08837 -6.5476,0.4944 0,1.22563 3.703,3.48891 12.7945,7.82011 10.8914,5.18865 13.4361,6.85628001 17.1085,11.21151 2.3727,2.81392 4.1527,5.24921 3.9555,5.41176 -0.1972,0.16254 -2.423,1.48638 -4.9464,2.94187 -4.877,2.81316 -5.9614,2.99071 -9.9121,1.62287 z"
         style="fill:#000000"
         inkscape:connector-curvature="0" />
      <path
         id="path4367"
         d="m 125.1461,0.47381501 -15.354,-4.19400001 -4.3926,-8.42771 c -2.4159,-4.63524 -4.3942,-8.48396 -4.3961,-8.55271 0,-0.0688 1.2605,-0.37777 2.8052,-0.68671 2.4741,-0.49483 5.3153,-0.12008 13.9414,1.83885 1.7139,0.38922 2.25,0.065 2.25,-1.36076 0,-1.41996 -3.045,-3.28814 -12.6157,-7.74002 -10.5681,-4.91581 -13.3274,-6.68177 -17,-10.88015 -2.4114,-2.75652 -4.3843,-5.31861 -4.3843,-5.69354 0,-0.37492 2.1375,-1.88741 4.75,-3.36109 l 4.75,-2.6794 9.5,2.70508 c 5.225,1.48779 10.8649,3.2663 12.533,3.95223 3.1464,1.29374 2.5123,0.0241 22.1162,44.28051001 1.2791,2.88749999 1.9938,5.19226999 1.5882,5.12170999 -0.4056,-0.0706 -7.6467,-2.0156 -16.0913,-4.32228999 z"
         style="fill:#000000"
         inkscape:connector-curvature="0" />
      <path
         id="path4359"
         d="m 204.7064,-9.734085 -4.7936,-3.59774 3.7936,-2.52605 c 2.0865,-1.38933 3.9783,-2.67892 4.2041,-2.86576 0.2258,-0.18684 -0.3705,-1.20275 -1.3251,-2.25759 -1.7068,-1.88596 -1.829,-1.87659 -7.346,0.56329 l -5.6104,2.48118 -5.5645,-3.93466 c -3.0605,-2.16405 -5.5645,-4.28944 -5.5645,-4.72308 0,-0.96757 46.2936,-18.35419 46.997,-17.6508 0.2766,0.27666 0.503,6.45543 0.503,13.7306 l 0,13.22758 -9.6252,5.60576 c -5.2938,3.08316 -9.9063,5.59209 -10.25,5.57538 -0.3436,-0.0167 -2.7819,-1.64935 -5.4184,-3.62811 z"
         style="fill:#000000"
         inkscape:connector-curvature="0" />
      <path
         id="path4353"
         d="m 46,-56.862865 0,-14.00123 9.6201,-5.60278 9.62,-5.60278 5.0164,3.68236 5.0164,3.68235 -2.8864,2.30971 c -1.5876,1.27033 -3.224,2.31193 -3.6365,2.31466 -1.2569,0.008 -0.8362,2.68852 0.6105,3.88919 1.0367,0.86042 2.7047,0.53466 7.0089,-1.3689 l 5.6485,-2.49801 6.0073,4.4223 c 3.304,2.43227 5.6624,4.63057 5.241,4.88513 -0.4214,0.25455 -10.4412,4.06979 -22.2662,8.47832 -11.825,4.40853 -22.2875,8.32947 -23.25,8.71321 -1.6166,0.64451 -1.75,-0.36989 -1.75,-13.30353 z"
         style="fill:#000000"
         inkscape:connector-curvature="0" />
      <path
         id="path4351"
         d="m 156.1496,-43.961985 c -1.4739,-0.93401 -22.4016,-47.195 -21.6777,-47.91888 0.3491,-0.34907 20.2572,4.61566 29.8051,7.43287 0.9774,0.28838 3.6017,4.15334 5.8318,8.5888 5.2629,10.46729 4.8524,10.79097 -10.3588,8.16844 -3.0851,-0.53189 -3.75,-0.35264 -3.75,1.01093 0,1.14048 3.9291,3.51452 12.5966,7.61115 9.5179,4.49849 13.5407,6.99726 16.459,10.22337 2.1243,2.34834 3.8808,4.6072 3.9034,5.0197 0.057,1.04501 -31.1498,0.91528 -32.8094,-0.13638 z"
         style="fill:#000000"
         inkscape:connector-curvature="0" />
      <path
         id="path4345"
         d="m 125.2108,-51.391015 -15.2893,-4.18459 -4.431,-8 c -2.4371,-4.4 -4.4444,-8.40245 -4.4608,-8.89434 -0.031,-0.92713 12.7254,-0.18313 16.7203,0.9752 1.7775,0.51539 2.25,0.25 2.25,-1.26365 0,-1.48604 -2.7415,-3.13934 -12.2154,-7.36664 -9.9236,-4.42799 -13.1093,-6.38861 -16.9804,-10.45057 -2.6208,-2.75 -4.7734,-5.45 -4.7836,-6 -0.01,-0.55 2.1755,-2.2323 4.8572,-3.738445 l 4.8758,-2.73844 12.2656,3.685845 12.2655,3.68585 2.4693,5.5526 c 14.2675,32.08149 18.9602,43.04252 18.4037,42.98718 -0.3617,-0.036 -7.5379,-1.94847 -15.9469,-4.25 z"
         style="fill:#000000"
         inkscape:connector-curvature="0" />
      <path
         id="path4333"
         d="m 204.7822,-61.331655 c -2.5947,-1.78417 -4.7322,-3.49859 -4.75,-3.80981 -0.018,-0.31122 1.7678,-1.57751 3.9678,-2.81398 4.3735,-2.45802 4.7583,-3.24596 2.5004,-5.1198 -1.215,-1.00839 -2.6378,-0.81886 -7.4984,0.99889 l -5.9988,2.24342 -5.5781,-4.21149 c -3.068,-2.31633 -5.3967,-4.39286 -5.1751,-4.61453 0.2217,-0.22167 14.0936,-5.54509 30.8265,-11.82982 16.7329,-6.28473 31.211,-11.735935 32.1735,-12.113785 1.6103,-0.63219 1.7474,0.29922 1.7174,11.669965 l -0.033,12.35699 -17.851,10.25 c -9.8181,5.6375 -18.2409,10.24728 -18.7174,10.24395 -0.4764,-0.003 -2.9893,-1.46582 -5.5841,-3.25 z"
         style="fill:#000000"
         inkscape:connector-curvature="0" />
      <path
         id="path4321"
         d="m 29,-100.55129 0,-12.24609 17.5033,-10.13911 c 9.6268,-5.57651 17.9907,-10.13911 18.5865,-10.13911 1.2554,0 9.9163,6.05476 9.8978,6.91952 -0.01,0.31926 -1.5818,1.59712 -3.5,2.83967 -3.8091,2.46743 -4.1966,3.40746 -2.1167,5.1337 1.0451,0.86734 2.715,0.62344 7.0256,-1.02614 l 5.6547,-2.16391 5.5027,3.78984 c 3.0265,2.08441 5.6996,4.10851 5.9403,4.498 0.2408,0.3895 -4.6095,2.55769 -10.7782,4.81821 -6.1688,2.26051 -20.7785,7.67661 -32.466,12.035765 l -21.25,7.92574 0,-12.246085 z"
         style="fill:#000000"
         inkscape:connector-curvature="0" />
      <path
         id="path4319"
         d="m 167.2761,-91.923755 c -6.1731,-2.00852 -11.6308,-4.10185 -12.1282,-4.65185 -1.1559,-1.27805 -21.276,-46.705245 -20.8673,-47.113965 0.1683,-0.16826 7.2862,1.52422 15.8176,3.76106 l 15.5117,4.06699 4.195,7.76692 c 2.3073,4.27181 4.1951,8.33827 4.1951,9.03657 0,0.96487 -1.6202,1.11386 -6.75,0.62067 -3.7125,-0.35692 -7.7625,-0.92402 -9,-1.26023 -1.7577,-0.47752 -2.25,-0.19601 -2.25,1.28652 0,1.45002 2.7724,3.17046 11.75,7.29164 12.3047,5.64848 14.5874,7.20502 19.3603,13.201395 l 2.9113,3.65756 -5.0258,3.09244 c -2.7642,1.70084 -5.3566,3.04826 -5.7608,2.99428 -0.4043,-0.054 -5.7858,-1.74149 -11.9589,-3.75 z"
         style="fill:#000000"
         inkscape:connector-curvature="0" />
      <path
         id="path4313"
         d="m 124.6499,-103.08963 c -7.6175,-2.08235 -14.2206,-4.16857 -14.6736,-4.63603 -0.4529,-0.46747 -2.6882,-4.32125 -4.9674,-8.56396 l -4.1438,-7.71401 2.5539,-0.641 c 1.4047,-0.35255 5.4094,-0.14374 8.8994,0.46402 7.9513,1.38466 7.6816,1.39907 7.6816,-0.41062 0,-0.95873 -4.8685,-3.84658 -13.25,-7.85942 -11.0485,-5.28978 -13.8822,-7.11587 -17.0551,-10.99073 -2.0928,-2.55582 -3.551,-5.05798 -3.2405,-5.56036 0.3104,-0.50238 2.5579,-2.02755 4.9942,-3.38925 l 4.4298,-2.47583 12.3108,3.90058 12.3108,3.90057 10.6239,23.99504 c 7.9968,18.06159 10.2223,23.966845 9,23.881065 -0.8931,-0.0627 -7.8564,-1.817705 -15.474,-3.900065 z"
         style="fill:#000000"
         inkscape:connector-curvature="0" />
      <path
         id="path4305"
         d="m 205.1128,-112.87406 c -5.1046,-3.55786 -5.1989,-3.70955 -3.2209,-5.18333 6.5192,-4.85726 6.1712,-4.37402 4.6183,-6.41347 -1.4066,-1.84736 -1.5905,-1.83135 -7.2735,0.63329 l -5.8303,2.52855 -5.6707,-4.13329 c -3.1189,-2.27331 -5.6853,-4.36178 -5.7032,-4.64105 -0.032,-0.49396 45.9705,-17.99224 47.3008,-17.99224 0.3667,0 0.6667,6.08059 0.6667,13.51242 l 0,13.51242 -5.25,3.30088 c -2.8875,1.81548 -7.3039,4.47989 -9.8143,5.9209 l -4.5643,2.62004 -5.2586,-3.66512 z"
         style="fill:#000000"
         inkscape:connector-curvature="0" />
      <path
         id="path4285"
         d="m 46.0218,-160.43772 0.022,-14.13788 9.5615,-5.34962 9.5615,-5.34962 4.9147,3.34962 c 2.7031,1.84229 4.9156,3.65042 4.9167,4.01806 0,0.36764 -1.6006,1.65886 -3.5593,2.86937 -2.2929,1.41712 -3.3613,2.72174 -3,3.66335 0.3087,0.80433 0.5612,1.65061 0.5612,1.88063 0,0.99625 3.4881,0.26383 8.0122,-1.6824 l 4.883,-2.10061 6.0652,4.25448 c 3.3359,2.33996 5.9189,4.40078 5.7401,4.57959 -0.1788,0.1788 -10.9846,4.33411 -24.0128,9.23401 l -23.6877,8.90891 0.022,-14.13789 z"
         style="fill:#000000"
         inkscape:connector-curvature="0" />
      <path
         id="path4283"
         d="m 156.8814,-146.73962 c -1.0004,-0.26701 -5.7065,-9.61691 -12.3213,-24.47933 -5.8865,-13.22603 -10.5582,-24.17129 -10.3814,-24.32282 0.1767,-0.15152 7.2826,1.57888 15.7909,3.84534 l 15.4697,4.12083 4.2139,7.5 c 2.3177,4.125 4.2439,8.01004 4.2804,8.63342 0.1394,2.38035 -4.7136,2.33067 -15.6836,-0.16056 -1.7133,-0.38908 -2.25,-0.065 -2.25,1.35885 0,1.41378 3.122,3.34614 12.8009,7.92307 10.5417,4.98496 13.4537,6.84996 16.5,10.56754 2.0345,2.48285 3.6991,4.77604 3.6991,5.09598 0,0.65899 -29.6257,0.58306 -32.1186,-0.0823 z"
         style="fill:#000000"
         inkscape:connector-curvature="0" />
      <path
         id="path4281"
         d="m 123.7393,-155.01527 c -7.5684,-2.06163 -13.9281,-3.93109 -14.1328,-4.15437 -0.2928,-0.31953 -7.0491,-13.23062 -8.3918,-16.03662 -0.7182,-1.50086 5.1459,-1.76299 11.1737,-0.49946 3.5959,0.75375 6.7795,1.12888 7.0748,0.83362 1.7141,-1.7141 -0.7712,-3.52353 -12.3784,-9.01232 -10.6251,-5.02439 -13.5951,-6.92077 -16.75,-10.69499 -2.1091,-2.52322 -3.8348,-5.04705 -3.8348,-5.60851 0,-0.56146 2.093,-2.20841 4.651,-3.65989 l 4.651,-2.63905 12.349,3.79443 12.349,3.79442 9.7136,22.16121 c 12.1189,27.64866 11.4157,25.68259 9.1434,25.56557 -1.0214,-0.0526 -8.0493,-1.78241 -15.6177,-3.84404 z"
         style="fill:#000000"
         inkscape:connector-curvature="0" />
      <path
         id="path4279"
         d="m 205.5,-164.2074 c -5.9212,-4.43323 -5.9805,-4.56252 -2.8649,-6.24651 5.8764,-3.17625 5.9659,-3.30017 3.9726,-5.50268 -1.8103,-2.0004 -1.8203,-1.99979 -7.3785,0.45834 l -5.5657,2.46143 -3.5818,-2.52796 c -1.9699,-1.39037 -4.7015,-3.39445 -6.0701,-4.4535 l -2.4884,-1.92555 2.9884,-1.16077 c 9.4978,-3.68917 61.5404,-22.971 61.9999,-22.971 0.3025,0 0.4237,5.46094 0.2693,12.13543 l -0.2808,12.13542 -17.9676,10.36458 c -9.8822,5.70051 -18.2072,10.33375 -18.5,10.29609 -0.2928,-0.0377 -2.3324,-1.41616 -4.5324,-3.06332 z"
         style="fill:#000000"
         inkscape:connector-curvature="0" />
      <path
         id="path4261"
         d="m 29.2192,-204.26724 0.2808,-12.19165 17.8481,-10.32154 17.848,-10.32155 5.0384,3.69852 5.0384,3.69852 -2.8864,2.30971 c -1.5876,1.27033 -3.224,2.31193 -3.6365,2.31466 -1.2107,0.008 -0.86,2.66912 0.5,3.79364 0.8863,0.73288 2.9399,0.34527 7.0587,-1.3323 l 5.8086,-2.36587 6.0361,4.44349 6.036,4.44349 -2.8447,1.10686 c -8.3362,3.24357 -61.4793,22.91566 -61.9055,22.91566 -0.2754,0 -0.3744,-5.48624 -0.22,-12.19164 z"
         style="fill:#000000"
         inkscape:connector-curvature="0" />
      <path
         id="path4259"
         d="m 166.1507,-195.60728 c -5.692,-1.83342 -10.5643,-3.54863 -10.8273,-3.81158 -1.1201,-1.12014 -21.2791,-47.03439 -20.8425,-47.47102 0.4329,-0.4329 12.1725,2.45632 26.2978,6.47215 5.2152,1.48267 5.3275,1.59781 9.3318,9.56188 5.297,10.5353 5.2634,10.5616 -10.3605,8.11247 -3.0334,-0.4755 -3.75,-0.27793 -3.75,1.03382 0,1.09506 4.1402,3.58216 12.75,7.6591 9.0972,4.30778 13.6847,7.10283 16.0125,9.75616 5.7544,6.55892 5.7665,6.75207 0.6034,9.63775 -2.5398,1.41952 -5.5736,2.53636 -6.7419,2.48185 -1.1682,-0.0545 -6.7812,-1.59916 -12.4733,-3.43258 z"
         style="fill:#000000"
         inkscape:connector-curvature="0" />
      <path
         id="path4253"
         d="m 125.2125,-206.40376 -15.2876,-4.17184 -4.4327,-8 c -2.438,-4.4 -4.4461,-8.40245 -4.4625,-8.89434 -0.031,-0.92713 12.7254,-0.18313 16.7203,0.9752 1.7809,0.51639 2.25,0.25045 2.25,-1.27556 0,-1.49878 -2.8658,-3.24051 -12.8733,-7.82402 -10.9993,-5.03773 -13.4741,-6.60869 -17,-10.79129 C 87.857,-249.07798 86,-251.62949 86,-252.05562 c 0,-0.42614 2.3625,-1.97931 5.25,-3.45149 l 5.25,-2.6767 11.9231,3.81641 11.9231,3.81642 6.8855,15.48769 c 3.787,8.51823 8.6338,19.42519 10.7708,24.23769 2.137,4.8125 3.5731,8.71483 3.1915,8.67184 -0.3817,-0.043 -7.5734,-1.95549 -15.9815,-4.25 z"
         style="fill:#000000"
         inkscape:connector-curvature="0" />
      <path
         id="path4247"
         d="m 204.7822,-216.33165 c -2.5947,-1.78417 -4.7322,-3.49859 -4.75,-3.80981 -0.018,-0.31122 1.7678,-1.57751 3.9678,-2.81398 4.3941,-2.46965 4.7615,-3.2433 2.4505,-5.16122 -1.2811,-1.06326 -2.4534,-0.91128 -6.7693,0.87755 -2.8709,1.18993 -5.5679,2.16351 -5.9932,2.16351 -1.1173,0 -11.9203,-8.10102 -11.4415,-8.57983 0.6589,-0.65886 45.677,-17.42017 46.7877,-17.42017 0.66,0 0.9237,4.8467 0.744,13.67888 l -0.2782,13.67887 -9,5.30389 c -4.95,2.91713 -9.45,5.30892 -10,5.31507 -0.55,0.006 -3.123,-1.44858 -5.7178,-3.23276 z"
         style="fill:#000000"
         inkscape:connector-curvature="0" />
      <path
         id="path4225"
         d="m 46,-263.87774 0,-13.80215 9.6536,-5.60254 9.6537,-5.60254 4.8463,3.61814 c 2.6655,1.98998 4.8408,3.85958 4.834,4.15468 -0.01,0.2951 -1.5818,1.55319 -3.5,2.79574 -3.8381,2.48623 -4.2002,3.40453 -2.0471,5.19146 1.1376,0.94408 2.4263,0.75949 6.1272,-0.87755 2.5776,-1.14021 5.3236,-2.0731 6.1023,-2.0731 0.7787,0 3.9146,1.88662 6.9687,4.19248 4.6683,3.52461 5.2589,4.30445 3.7071,4.89532 -9.4702,3.606 -45.6062,16.9122 -45.9289,16.9122 -0.2293,0 -0.4169,-6.21097 -0.4169,-13.80214 z"
         style="fill:#000000"
         inkscape:connector-curvature="0" />
      <path
         id="path4223"
         d="m 155.2541,-251.3256 c -1.4127,-1.78224 -21.3533,-46.98411 -20.9186,-47.41879 0.1984,-0.1984 7.3177,1.49677 15.8208,3.76706 l 15.46,4.1278 4.1919,7.76093 c 2.3055,4.26851 4.1918,8.33272 4.1918,9.03157 0,1.25959 -8.117,0.91412 -15.25,-0.64907 -2.2391,-0.4907 -2.75,-0.25313 -2.75,1.27886 0,1.43088 2.8142,3.16636 11.75,7.24618 11.6336,5.31151 15.5787,8.02614 19.4095,13.35546 l 1.9767,2.75 -16.4457,0 c -11.9614,0 -16.7158,-0.34084 -17.4364,-1.25 z"
         style="fill:#000000"
         inkscape:connector-curvature="0" />
      <path
         id="path4221"
         d="m 125.0983,-258.10415 c -7.921,-2.13119 -14.7491,-4.23412 -15.1736,-4.67317 -0.4246,-0.43906 -2.645,-4.28505 -4.9343,-8.54667 -3.5609,-6.62867 -3.9271,-7.83868 -2.5341,-8.37322 1.5284,-0.5865 8.2101,0.005 14.6839,1.29965 2.2167,0.44335 2.8598,0.20304 2.8598,-1.06867 0,-1.11911 -4.2119,-3.65719 -13.25,-7.98442 -11.0485,-5.28979 -13.8822,-7.11587 -17.0551,-10.99073 -2.0928,-2.55582 -3.551,-5.05798 -3.2405,-5.56036 0.3104,-0.50238 2.5637,-2.0308 5.0072,-3.39648 l 4.4426,-2.48306 12.2038,3.75968 12.2038,3.75968 10.7466,24.14316 c 5.9106,13.27874 10.228,24.10859 9.5941,24.06634 -0.6339,-0.0422 -7.6333,-1.82053 -15.5542,-3.95173 z"
         style="fill:#000000"
         inkscape:connector-curvature="0" />
      <path
         id="path4219"
         d="m 205.032,-268.05171 -5.2033,-3.88217 4.0329,-2.66886 c 3.5629,-2.3578 3.8934,-2.89553 2.8357,-4.61378 -1.2585,-2.04439 -1.4804,-2.02528 -8.7752,0.756 l -4.5779,1.74539 -5.6603,-3.93024 c -3.1131,-2.16163 -5.6655,-4.18455 -5.6721,-4.49539 -0.01,-0.31083 13.1507,-5.45166 29.2382,-11.42406 16.0875,-5.9724 30.7125,-11.46162 32.5,-12.19826 l 3.25,-1.33936 0,12.29332 0,12.29333 -13.7122,7.97009 c -7.5418,4.38356 -15.8138,9.18646 -18.3824,10.67313 l -4.6701,2.70303 -5.2033,-3.88217 z"
         style="fill:#000000"
         inkscape:connector-curvature="0" />
      <path
         id="path4199"
         d="m 29.0104,-307.21861 0.01,-12.35699 16.766,-9.69558 c 9.2213,-5.33258 17.4889,-9.97298 18.3724,-10.31202 1.5601,-0.59866 10.8408,5.0674 10.8408,6.61854 0,0.39927 -1.575,1.69935 -3.5,2.88906 -3.8851,2.40113 -4.1965,3.17704 -2.0051,4.99577 1.21,1.00417 2.5477,0.81336 7.0181,-1.00103 l 5.5231,-2.2417 3.732,2.63205 c 9.7591,6.88288 12.3363,4.82781 -22.4097,17.86951 -16.9721,6.37037 -31.6459,11.89229 -32.6084,12.27093 -1.6097,0.63326 -1.7492,-0.30211 -1.7396,-11.66854 z"
         style="fill:#000000"
         inkscape:connector-curvature="0" />
      <path
         id="path4197"
         d="m 166.3351,-298.83481 -11.165,-3.54505 -10.585,-23.78293 C 138.7633,-339.2434 134,-350.15023 134,-350.40019 c 0,-0.4624 29.86,7.12001 31.13,7.9049 1.0774,0.6659 8.87,15.1765 8.87,16.51692 0,1.25622 -12.7112,0.76897 -16.25,-0.6229 -1.3051,-0.51333 -1.75,-0.19063 -1.75,1.26944 0,1.52588 2.8126,3.28843 12.75,7.99005 10.9359,5.174 13.3701,6.76862 17.1085,11.20737 2.3972,2.84628 4.1972,5.30805 4,5.4706 -1.955,1.61148 -9.8492,5.56432 -10.9464,5.48114 -0.7766,-0.0589 -6.4363,-1.70235 -12.577,-3.65213 z"
         style="fill:#000000"
         inkscape:connector-curvature="0" />
      <path
         id="path4189"
         d="m 123.6459,-310.12637 c -7.6197,-2.10325 -13.9799,-3.96474 -14.1338,-4.13666 -0.1538,-0.17191 -2.1146,-3.98063 -4.3574,-8.46382 l -4.0777,-8.15125 2.3595,-0.59221 c 1.2977,-0.32571 4.7168,-0.14515 7.598,0.40125 13.1792,2.49938 11.9682,-0.26091 -3.2845,-7.48676 -11.7543,-5.56848 -16.8274,-9.00139 -18.8712,-12.76978 -0.8863,-1.63417 0.1382,-1.75 15.4788,-1.75 l 16.428,0 10.1072,22.90329 c 5.559,12.5968 10.1072,23.1718 10.1072,23.49999 0,1.07977 -3.3295,0.41708 -17.3541,-3.45405 z"
         style="fill:#000000"
         inkscape:connector-curvature="0" />
      <path
         id="path4183"
         d="m 205.5,-319.2074 c -5.9516,-4.45599 -5.9459,-4.4344 -1.8232,-6.91506 2.1028,-1.26525 4.0079,-2.44455 4.2337,-2.62067 0.2258,-0.17611 -0.3828,-1.19689 -1.3525,-2.26838 -1.7437,-1.92673 -1.8243,-1.92108 -7.3288,0.51326 l -5.5657,2.46143 -3.5818,-2.52795 c -6.7731,-4.78044 -8.3516,-6.22598 -7.4244,-6.79904 3.1863,-1.96923 42.0484,-15.71179 44.4309,-15.71179 l 2.9118,0 0,12.89418 0,12.89419 -9.8147,5.60581 c -5.3981,3.0832 -10.0106,5.575 -10.25,5.53734 -0.2394,-0.0377 -2.2353,-1.41616 -4.4353,-3.06332 z"
         style="fill:#000000"
         inkscape:connector-curvature="0" />
    </g>
  </g>
</svg>
